<svg xmlns="http://www.w3.org/2000/svg" version="1.1" xmlns:xlink="http://www.w3.org/1999/xlink" xmlns:svgjs="http://svgjs.com/svgjs" width="1440" height="560" preserveAspectRatio="none" viewBox="0 0 1440 560"><g mask="url(&quot;#SvgjsMask1446&quot;)" fill="none"><rect width="1440" height="560" x="0" y="0" fill="url(#SvgjsLinearGradient1447)"></rect><path d="M1440 0L723.74 0L1440 78.05z" fill="rgba(255, 255, 255, .1)"></path><path d="M723.74 0L1440 78.05L1440 202.95999999999998L701.65 0z" fill="rgba(255, 255, 255, .075)"></path><path d="M701.65 0L1440 202.95999999999998L1440 334.12L395.96 0z" fill="rgba(255, 255, 255, .05)"></path><path d="M395.96000000000004 0L1440 334.12L1440 356.22L333.72 0z" fill="rgba(255, 255, 255, .025)"></path><path d="M0 560L229.21 560L0 393.84000000000003z" fill="rgba(0, 0, 0, .1)"></path><path d="M0 393.84000000000003L229.21 560L278.46000000000004 560L0 374.71000000000004z" fill="rgba(0, 0, 0, .075)"></path><path d="M0 374.71000000000004L278.46000000000004 560L668.9300000000001 560L0 353.76000000000005z" fill="rgba(0, 0, 0, .05)"></path><path d="M0 353.76L668.9300000000001 560L1036.67 560L0 312.05z" fill="rgba(0, 0, 0, .025)"></path></g><defs><mask id="SvgjsMask1446"><rect width="1440" height="560" fill="#ffffff"></rect></mask><linearGradient x1="15.28%" y1="-39.29%" x2="84.72%" y2="139.29%" gradientUnits="userSpaceOnUse" id="SvgjsLinearGradient1447"><stop stop-color="#0e2a47" offset="0"></stop><stop stop-color="rgba(27, 127, 184, 1)" offset="1"></stop></linearGradient></defs></svg>