<svg id="visual" viewBox="0 0 900 600" width="900" height="600" xmlns="http://www.w3.org/2000/svg" xmlns:xlink="http://www.w3.org/1999/xlink" version="1.1"><rect x="0" y="0" width="900" height="600" fill="#1668e6"></rect><path d="M0 532L12.5 522.2C25 512.3 50 492.7 75 476.5C100 460.3 125 447.7 150 442.3C175 437 200 439 225 440C250 441 275 441 300 454.7C325 468.3 350 495.7 375 496.3C400 497 425 471 450 469.8C475 468.7 500 492.3 525 497.7C550 503 575 490 600 488.7C625 487.3 650 497.7 675 503.5C700 509.3 725 510.7 750 501.3C775 492 800 472 825 467.3C850 462.7 875 473.3 887.5 478.7L900 484L900 601L887.5 601C875 601 850 601 825 601C800 601 775 601 750 601C725 601 700 601 675 601C650 601 625 601 600 601C575 601 550 601 525 601C500 601 475 601 450 601C425 601 400 601 375 601C350 601 325 601 300 601C275 601 250 601 225 601C200 601 175 601 150 601C125 601 100 601 75 601C50 601 25 601 12.5 601L0 601Z" fill="#0d2c5a" stroke-linecap="round" stroke-linejoin="miter"></path></svg>